<svg xmlns="http://www.w3.org/2000/svg" viewBox="0 0 61.2 61.2"><defs><style>.cls-1{fill:#791c54;}.cls-2{fill:#dbc8c8;}</style></defs><title>ACM Edu Logo</title><g id="Layer_2" data-name="Layer 2"><g id="Layer_1-2" data-name="Layer 1"><g id="ACM_Edu_Logo" data-name="ACM Edu Logo"><rect class="cls-1" width="61.2" height="61.2"/><rect class="cls-2" x="4.56" y="4.54" width="52.04" height="52.04"/><path class="cls-1" d="M47.11,19.24c-1.74-1.72-3.46-3.45-5.21-5.16a2,2,0,0,0-3.09,0c-1.48,1.46-3,2.94-4.42,4.41C29.19,23.71,24,28.93,18.77,34.09a9.32,9.32,0,0,0-2.63,4.24c-.73,2.58-1.66,5.1-2.5,7.65a1.14,1.14,0,0,0,.16,1.28,1.15,1.15,0,0,0,1.28.16q4.67-1.39,9.35-2.74a3.91,3.91,0,0,0,1.8-1.07q5.4-5.49,10.83-11,5-5,10-10a2.46,2.46,0,0,0,.78-1.7A2.73,2.73,0,0,0,47.11,19.24ZM22.56,33.09,35,20.63c.16-.16.32-.33.49-.48a.22.22,0,0,1,.34,0c.09.1.16.23.08.34a5.4,5.4,0,0,1-.45.52L22,34.58c-.37.38-.74.77-1.1,1.16a.67.67,0,0,1-1.08.06C20.74,34.87,21.66,34,22.56,33.09ZM23.19,43,16.5,45c-.42.13-.44,0-.33-.37q1.13-3.34,2.21-6.71c.1-.32.27-.23.46-.16s.88,0,.91.55,0,1.22,0,1.83c0,.82.3,1.16,1.12,1.24.45,0,.91,0,1.37,0,.89,0,1.26.37,1.26,1.26C23.58,42.93,23.35,42.91,23.19,43Zm.88-4.09a2.16,2.16,0,0,1-2,.51c-.57-.07-.17-.63-.26-.81a1.4,1.4,0,0,1,.43-1.41Q29.6,29.76,37,22.35c.45-.45.73-.51,1.12,0s1.18.8,1.14,1.33-.73.85-1.14,1.26C33.4,29.58,28.71,34.2,24.07,38.87Zm17-13.08c-.15.17-.31.34-.48.5L27.43,39.51c-.57.57-1.13,1.17-1.69,1.75a3.29,3.29,0,0,1-.32.27.28.28,0,0,1-.27-.27c0-.33-.25-.63.12-1,1-.92,2-1.89,3-2.85l12-11.82c.11-.11.23-.21.33-.32s.29-.14.43,0S41.26,25.61,41.1,25.79Zm4.38-4.46c-.81.81-1.64,1.6-2.43,2.43-.34.36-.55.28-.86,0-1.55-1.57-3.12-3.14-4.7-4.69-.32-.31-.37-.52,0-.86.83-.78,1.64-1.6,2.43-2.42.29-.3.49-.35.81,0,1.59,1.61,3.2,3.21,4.8,4.81a3.92,3.92,0,0,1,.27.33A.77.77,0,0,1,45.48,21.33Z"/><path class="cls-1" d="M46.86,41.71c-1.66,1.71-3.36,3.4-5,5.09a2.62,2.62,0,0,1-2,.73,2.69,2.69,0,0,1-1.86-.94l-6.07-6.33c-.58-.6-.65-1.11-.21-1.58s1-.42,1.59.14c.37.35.75,1,1.12,1s.73-.62,1.09-1c.57-.55,1.15-.61,1.59-.15s.4,1-.15,1.6c-1.19,1.17-1.17,1.16,0,2.35.39.4.62.35,1,0,.88-.92,1.79-1.81,2.7-2.7.63-.63,1.18-.68,1.67-.2s.41,1-.19,1.66c-.93.93-1.87,1.87-2.83,2.78-.33.32-.4.54,0,.83s.62,1,1.23.34c1.35-1.37,2.73-2.73,4-4.14.37-.39,1.08-.71,1-1.24s-.68-.78-1-1.16L38.85,33.2a1.13,1.13,0,0,1-.42-1.34A1,1,0,0,1,40,31.54c.49.43.94.92,1.41,1.39l5.4,5.39A2.29,2.29,0,0,1,46.86,41.71Z"/><path class="cls-1" d="M29.61,22.61a.91.91,0,0,1-1.4-.12C26.11,20.39,24,18.28,22,16c-.7-.81-.71-.81-1.47,0C19,17.52,17.52,19.06,16,20.57c-.39.39-.46.7,0,1.07s.64.77,1.2.13c.81-.94,1.74-1.78,2.63-2.66.67-.66,1.24-.74,1.71-.23s.37,1-.25,1.66c-.9.89-1.8,1.79-2.72,2.68-.31.3-.37.51,0,.87,1.2,1.27,1.18,1.28,2.46.1.58-.54,1.07-.58,1.54-.12s.44.95-.07,1.53c-.36.42-1.1.71-1,1.23s.67.78,1,1.17c.53.57.56,1.1.11,1.54s-1,.39-1.53-.16L14.4,22.9a2.52,2.52,0,0,1-.78-1.64,2.72,2.72,0,0,1,.82-2c1.67-1.68,3.34-3.36,5-5a2.42,2.42,0,0,1,3.66,0c2.13,2.32,4.28,4.62,6.5,6.87A.94.94,0,0,1,29.61,22.61Z"/></g></g></g></svg>